<svg width="163" height="96" viewBox="0 0 163 96" fill="none" xmlns="http://www.w3.org/2000/svg">
<g clip-path="url(#clip0_2528_853)">
<path d="M38.932 69.704C34.068 69.704 29.908 68.744 26.452 66.824C22.996 64.904 20.3293 62.216 18.452 58.76C16.6173 55.2613 15.7 51.144 15.7 46.408C15.7 42.8667 16.212 39.688 17.236 36.872C18.3027 34.0133 19.8387 31.5813 21.844 29.576C23.8493 27.528 26.2813 25.9493 29.14 24.84C32.0413 23.7307 35.3053 23.176 38.932 23.176C41.0653 23.176 43.22 23.4533 45.396 24.008C47.6147 24.52 49.5347 25.2667 51.156 26.248C52.2227 26.8453 52.948 27.592 53.332 28.488C53.716 29.384 53.8227 30.28 53.652 31.176C53.524 32.072 53.1613 32.84 52.564 33.48C52.0093 34.12 51.3053 34.5253 50.452 34.696C49.5987 34.8667 48.6387 34.6747 47.572 34.12C46.292 33.352 44.948 32.7973 43.54 32.456C42.132 32.1147 40.7027 31.944 39.252 31.944C36.3933 31.944 33.9827 32.52 32.02 33.672C30.1 34.7813 28.6493 36.4027 27.668 38.536C26.6867 40.6693 26.196 43.2933 26.196 46.408C26.196 49.48 26.6867 52.104 27.668 54.28C28.6493 56.456 30.1 58.12 32.02 59.272C33.9827 60.3813 36.3933 60.936 39.252 60.936C40.6173 60.936 42.004 60.7653 43.412 60.424C44.8627 60.0827 46.2493 59.5493 47.572 58.824C48.6813 58.2693 49.6627 58.0773 50.516 58.248C51.412 58.376 52.1373 58.76 52.692 59.4C53.2893 59.9973 53.652 60.7227 53.78 61.576C53.9507 62.4293 53.8653 63.2827 53.524 64.136C53.1827 64.9893 52.5427 65.7147 51.604 66.312C50.0253 67.3787 48.084 68.2107 45.78 68.808C43.476 69.4053 41.1933 69.704 38.932 69.704ZM65.978 69C64.314 69 63.034 68.552 62.138 67.656C61.242 66.76 60.794 65.48 60.794 63.816V29.064C60.794 27.4 61.242 26.12 62.138 25.224C63.034 24.328 64.314 23.88 65.978 23.88H81.466C84.666 23.88 87.3967 24.3493 89.658 25.288C91.9193 26.2267 93.626 27.5707 94.778 29.32C95.9727 31.0693 96.57 33.16 96.57 35.592C96.57 38.28 95.802 40.5627 94.266 42.44C92.73 44.3173 90.618 45.576 87.93 46.216V45.192C91.0447 45.7467 93.4553 46.984 95.162 48.904C96.9113 50.7813 97.786 53.2347 97.786 56.264C97.786 60.2747 96.3993 63.4107 93.626 65.672C90.8527 67.8907 87.034 69 82.17 69H65.978ZM70.266 61.64H80.826C83.386 61.64 85.2633 61.1493 86.458 60.168C87.6527 59.144 88.25 57.6507 88.25 55.688C88.25 53.7253 87.6527 52.2533 86.458 51.272C85.2633 50.2907 83.386 49.8 80.826 49.8H70.266V61.64ZM70.266 42.44H79.738C82.2127 42.44 84.0473 41.9707 85.242 41.032C86.4367 40.0933 87.034 38.6853 87.034 36.808C87.034 34.9733 86.4367 33.5867 85.242 32.648C84.0473 31.7093 82.2127 31.24 79.738 31.24H70.266V42.44ZM110.478 69C108.814 69 107.534 68.552 106.638 67.656C105.742 66.76 105.294 65.48 105.294 63.816V29.064C105.294 27.4 105.742 26.12 106.638 25.224C107.534 24.328 108.814 23.88 110.478 23.88H122.958C130.681 23.88 136.633 25.8427 140.814 29.768C145.038 33.6507 147.15 39.1973 147.15 46.408C147.15 50.0347 146.595 53.256 145.486 56.072C144.419 58.8453 142.862 61.192 140.814 63.112C138.766 65.032 136.249 66.504 133.262 67.528C130.275 68.5093 126.841 69 122.958 69H110.478ZM115.214 60.872H122.382C124.814 60.872 126.926 60.5733 128.718 59.976C130.51 59.3787 132.003 58.4827 133.198 57.288C134.393 56.0933 135.289 54.6 135.886 52.808C136.483 50.9733 136.782 48.84 136.782 46.408C136.782 41.544 135.566 37.9387 133.134 35.592C130.745 33.2027 127.161 32.008 122.382 32.008H115.214V60.872Z" fill="#DA9D27"/>
<path d="M7.08 88.09C6.57333 88.09 6.10667 88.03 5.68 87.91C5.25333 87.79 4.88667 87.6167 4.58 87.39C4.48 87.3233 4.41333 87.2433 4.38 87.15C4.34667 87.0567 4.34 86.9667 4.36 86.88C4.38 86.7933 4.42 86.7233 4.48 86.67C4.54667 86.61 4.62667 86.5767 4.72 86.57C4.81333 86.5567 4.91333 86.5833 5.02 86.65C5.20667 86.7767 5.40333 86.88 5.61 86.96C5.81667 87.04 6.03667 87.1 6.27 87.14C6.50333 87.18 6.75 87.2 7.01 87.2C7.41667 87.2 7.75 87.1567 8.01 87.07C8.27 86.9767 8.46 86.84 8.58 86.66C8.70667 86.48 8.77 86.2533 8.77 85.98C8.77 85.5933 8.65 85.3067 8.41 85.12C8.17 84.9333 7.8 84.84 7.3 84.84H5.96C5.81333 84.84 5.7 84.8067 5.62 84.74C5.54667 84.6667 5.51 84.56 5.51 84.42C5.51 84.2933 5.54667 84.1933 5.62 84.12C5.7 84.0467 5.81333 84.01 5.96 84.01H7.14C7.62667 84.01 7.99 83.9167 8.23 83.73C8.47667 83.5433 8.6 83.2667 8.6 82.9C8.6 82.6667 8.54 82.4633 8.42 82.29C8.30667 82.11 8.13333 81.9733 7.9 81.88C7.66667 81.7867 7.37333 81.74 7.02 81.74C6.7 81.74 6.38333 81.7833 6.07 81.87C5.75667 81.9567 5.47 82.0833 5.21 82.25C5.09667 82.3167 4.99333 82.3467 4.9 82.34C4.80667 82.3267 4.73 82.29 4.67 82.23C4.61667 82.17 4.58 82.0967 4.56 82.01C4.54 81.9167 4.54667 81.8267 4.58 81.74C4.62 81.6533 4.69 81.5767 4.79 81.51C5.11 81.29 5.47 81.1267 5.87 81.02C6.27667 80.9133 6.69333 80.86 7.12 80.86C7.68 80.86 8.14333 80.94 8.51 81.1C8.88333 81.26 9.16333 81.4867 9.35 81.78C9.53667 82.0667 9.63 82.4033 9.63 82.79C9.63 83.2167 9.50333 83.5767 9.25 83.87C8.99667 84.1633 8.65333 84.36 8.22 84.46V84.31C8.71333 84.3767 9.1 84.5633 9.38 84.87C9.66 85.17 9.8 85.5633 9.8 86.05C9.8 86.4633 9.7 86.8267 9.5 87.14C9.30667 87.4467 9.01 87.6833 8.61 87.85C8.21 88.01 7.7 88.09 7.08 88.09ZM12.297 89.87C12.177 89.87 12.077 89.8367 11.997 89.77C11.9236 89.71 11.8803 89.6267 11.867 89.52C11.8603 89.42 11.8803 89.31 11.927 89.19L12.607 87.66V88.09L10.737 83.74C10.6903 83.62 10.6736 83.5067 10.687 83.4C10.7003 83.2933 10.7503 83.21 10.837 83.15C10.9236 83.0833 11.0403 83.05 11.187 83.05C11.3136 83.05 11.4136 83.08 11.487 83.14C11.5603 83.2 11.627 83.3033 11.687 83.45L13.197 87.18H12.917L14.447 83.45C14.507 83.2967 14.577 83.1933 14.657 83.14C14.737 83.08 14.847 83.05 14.987 83.05C15.107 83.05 15.2003 83.0833 15.267 83.15C15.3403 83.21 15.3836 83.2933 15.397 83.4C15.417 83.5 15.4003 83.61 15.347 83.73L12.847 89.48C12.7803 89.6333 12.7036 89.7367 12.617 89.79C12.537 89.8433 12.4303 89.87 12.297 89.87ZM18.5411 88.09C18.0411 88.09 17.6078 87.9867 17.2411 87.78C16.8811 87.5667 16.6011 87.27 16.4011 86.89C16.2011 86.5033 16.1011 86.05 16.1011 85.53C16.1011 85.1433 16.1578 84.7967 16.2711 84.49C16.3844 84.1767 16.5444 83.9133 16.7511 83.7C16.9644 83.4867 17.2211 83.3233 17.5211 83.21C17.8278 83.09 18.1678 83.03 18.5411 83.03C18.7744 83.03 19.0178 83.0667 19.2711 83.14C19.5311 83.2067 19.7711 83.32 19.9911 83.48C20.0778 83.5333 20.1311 83.6 20.1511 83.68C20.1778 83.7533 20.1811 83.83 20.1611 83.91C20.1478 83.99 20.1111 84.06 20.0511 84.12C19.9978 84.1733 19.9311 84.2067 19.8511 84.22C19.7711 84.2267 19.6844 84.2033 19.5911 84.15C19.4311 84.0367 19.2678 83.9567 19.1011 83.91C18.9344 83.8567 18.7744 83.83 18.6211 83.83C18.3811 83.83 18.1678 83.87 17.9811 83.95C17.8011 84.0233 17.6478 84.1333 17.5211 84.28C17.3944 84.42 17.2978 84.5967 17.2311 84.81C17.1711 85.0233 17.1411 85.2667 17.1411 85.54C17.1411 86.0867 17.2678 86.5167 17.5211 86.83C17.7811 87.1367 18.1478 87.29 18.6211 87.29C18.7744 87.29 18.9344 87.2667 19.1011 87.22C19.2678 87.1733 19.4311 87.0933 19.5911 86.98C19.6844 86.9267 19.7711 86.9067 19.8511 86.92C19.9311 86.9333 19.9944 86.97 20.0411 87.03C20.0944 87.0833 20.1278 87.15 20.1411 87.23C20.1611 87.3033 20.1578 87.38 20.1311 87.46C20.1044 87.54 20.0478 87.6067 19.9611 87.66C19.7478 87.8133 19.5144 87.9233 19.2611 87.99C19.0144 88.0567 18.7744 88.09 18.5411 88.09ZM22.6963 88.07C22.5363 88.07 22.4096 88.0267 22.3163 87.94C22.2296 87.8467 22.1863 87.72 22.1863 87.56V83.93H20.8263C20.5329 83.93 20.3862 83.7933 20.3862 83.52C20.3862 83.4 20.4263 83.3033 20.5063 83.23C20.5863 83.1567 20.6929 83.12 20.8263 83.12H24.5563C24.8496 83.12 24.9963 83.2533 24.9963 83.52C24.9963 83.6533 24.9563 83.7567 24.8763 83.83C24.8029 83.8967 24.6963 83.93 24.5563 83.93H23.1963V87.56C23.1963 87.72 23.1529 87.8467 23.0663 87.94C22.9863 88.0267 22.8629 88.07 22.6963 88.07ZM26.2466 89.87C26.0866 89.87 25.9632 89.8267 25.8766 89.74C25.7899 89.6533 25.7466 89.5267 25.7466 89.36V83.56C25.7466 83.3933 25.7899 83.2667 25.8766 83.18C25.9632 83.0933 26.0832 83.05 26.2366 83.05C26.3966 83.05 26.5199 83.0933 26.6066 83.18C26.6932 83.2667 26.7366 83.3933 26.7366 83.56V84.43L26.6266 84.22C26.7332 83.86 26.9432 83.5733 27.2566 83.36C27.5699 83.14 27.9399 83.03 28.3666 83.03C28.7999 83.03 29.1766 83.1333 29.4966 83.34C29.8232 83.5467 30.0732 83.8367 30.2466 84.21C30.4266 84.5833 30.5166 85.0333 30.5166 85.56C30.5166 86.0733 30.4266 86.5233 30.2466 86.91C30.0732 87.29 29.8266 87.5833 29.5066 87.79C29.1866 87.99 28.8066 88.09 28.3666 88.09C27.9466 88.09 27.5799 87.9833 27.2666 87.77C26.9532 87.5567 26.7432 87.2733 26.6366 86.92H26.7566V89.36C26.7566 89.5267 26.7099 89.6533 26.6166 89.74C26.5299 89.8267 26.4066 89.87 26.2466 89.87ZM28.1166 87.31C28.3966 87.31 28.6399 87.2433 28.8466 87.11C29.0532 86.9767 29.2132 86.78 29.3266 86.52C29.4399 86.26 29.4966 85.94 29.4966 85.56C29.4966 84.9867 29.3699 84.5533 29.1166 84.26C28.8699 83.9667 28.5366 83.82 28.1166 83.82C27.8432 83.82 27.5999 83.8867 27.3866 84.02C27.1799 84.1467 27.0199 84.34 26.9066 84.6C26.7932 84.86 26.7366 85.18 26.7366 85.56C26.7366 86.1267 26.8632 86.56 27.1166 86.86C27.3699 87.16 27.7032 87.31 28.1166 87.31ZM32.2622 88.06C32.1022 88.06 31.9789 88.0133 31.8922 87.92C31.8055 87.82 31.7622 87.6833 31.7622 87.51V83.61C31.7622 83.4367 31.8055 83.3033 31.8922 83.21C31.9789 83.1167 32.1022 83.07 32.2622 83.07C32.4222 83.07 32.5455 83.1167 32.6322 83.21C32.7255 83.3033 32.7722 83.4367 32.7722 83.61V87.51C32.7722 87.6833 32.7289 87.82 32.6422 87.92C32.5555 88.0133 32.4289 88.06 32.2622 88.06ZM32.2622 82.03C32.0622 82.03 31.9055 81.98 31.7922 81.88C31.6855 81.78 31.6322 81.64 31.6322 81.46C31.6322 81.2733 31.6855 81.1333 31.7922 81.04C31.9055 80.94 32.0622 80.89 32.2622 80.89C32.4622 80.89 32.6155 80.94 32.7222 81.04C32.8355 81.1333 32.8922 81.2733 32.8922 81.46C32.8922 81.64 32.8355 81.78 32.7222 81.88C32.6155 81.98 32.4622 82.03 32.2622 82.03ZM37.9013 88.07C37.7346 88.07 37.6079 88.0233 37.5213 87.93C37.4346 87.8367 37.3913 87.7033 37.3913 87.53V86.12C37.2113 86.22 37.0179 86.2967 36.8113 86.35C36.6113 86.4033 36.3979 86.43 36.1712 86.43C35.4646 86.43 34.9413 86.26 34.6013 85.92C34.2613 85.58 34.0913 85.0633 34.0913 84.37V83.56C34.0913 83.3933 34.1346 83.2667 34.2213 83.18C34.3079 83.0933 34.4313 83.05 34.5913 83.05C34.7513 83.05 34.8746 83.0933 34.9613 83.18C35.0546 83.2667 35.1013 83.3933 35.1013 83.56V84.29C35.1013 84.75 35.1946 85.0833 35.3813 85.29C35.5746 85.4967 35.8913 85.6 36.3313 85.6C36.5446 85.6 36.7346 85.5767 36.9013 85.53C37.0679 85.4767 37.2279 85.3967 37.3813 85.29V83.58C37.3813 83.2267 37.5513 83.05 37.8913 83.05C38.0579 83.05 38.1813 83.0967 38.2613 83.19C38.3479 83.2767 38.3913 83.4067 38.3913 83.58V87.53C38.3913 87.7033 38.3513 87.8367 38.2713 87.93C38.1913 88.0233 38.0679 88.07 37.9013 88.07ZM40.4165 88.06C40.2565 88.06 40.1332 88.0133 40.0465 87.92C39.9598 87.82 39.9165 87.6833 39.9165 87.51V83.61C39.9165 83.4367 39.9598 83.3033 40.0465 83.21C40.1332 83.1167 40.2565 83.07 40.4165 83.07C40.5765 83.07 40.6998 83.1167 40.7865 83.21C40.8798 83.3033 40.9265 83.4367 40.9265 83.61V87.51C40.9265 87.6833 40.8832 87.82 40.7965 87.92C40.7098 88.0133 40.5832 88.06 40.4165 88.06ZM40.4165 82.03C40.2165 82.03 40.0598 81.98 39.9465 81.88C39.8398 81.78 39.7865 81.64 39.7865 81.46C39.7865 81.2733 39.8398 81.1333 39.9465 81.04C40.0598 80.94 40.2165 80.89 40.4165 80.89C40.6165 80.89 40.7698 80.94 40.8765 81.04C40.9898 81.1333 41.0465 81.2733 41.0465 81.46C41.0465 81.64 40.9898 81.78 40.8765 81.88C40.7698 81.98 40.6165 82.03 40.4165 82.03ZM46.6123 88.07C46.4523 88.07 46.3256 88.0267 46.2323 87.94C46.1456 87.8467 46.1023 87.72 46.1023 87.56V83.93H44.7423C44.4489 83.93 44.3023 83.7933 44.3023 83.52C44.3023 83.4 44.3423 83.3033 44.4223 83.23C44.5023 83.1567 44.6089 83.12 44.7423 83.12H48.4723C48.7656 83.12 48.9123 83.2533 48.9123 83.52C48.9123 83.6533 48.8723 83.7567 48.7923 83.83C48.7189 83.8967 48.6123 83.93 48.4723 83.93H47.1123V87.56C47.1123 87.72 47.0689 87.8467 46.9823 87.94C46.9023 88.0267 46.7789 88.07 46.6123 88.07ZM51.2226 88.09C50.8826 88.09 50.5759 88.0233 50.3026 87.89C50.0359 87.7567 49.8259 87.5767 49.6726 87.35C49.5192 87.1233 49.4426 86.8667 49.4426 86.58C49.4426 86.22 49.5326 85.9367 49.7126 85.73C49.8992 85.5167 50.2026 85.3667 50.6226 85.28C51.0492 85.1867 51.6226 85.14 52.3426 85.14H52.8126V85.76H52.3526C51.8726 85.76 51.4926 85.7833 51.2126 85.83C50.9326 85.8767 50.7326 85.9567 50.6126 86.07C50.4992 86.1767 50.4426 86.3267 50.4426 86.52C50.4426 86.7733 50.5292 86.98 50.7026 87.14C50.8759 87.2933 51.1159 87.37 51.4226 87.37C51.6692 87.37 51.8859 87.3133 52.0726 87.2C52.2592 87.08 52.4059 86.92 52.5126 86.72C52.6259 86.52 52.6826 86.29 52.6826 86.03V84.88C52.6826 84.5 52.6026 84.2267 52.4426 84.06C52.2826 83.8933 52.0192 83.81 51.6526 83.81C51.4392 83.81 51.2159 83.8367 50.9826 83.89C50.7559 83.9433 50.5192 84.0333 50.2726 84.16C50.1592 84.2133 50.0626 84.23 49.9826 84.21C49.9026 84.19 49.8392 84.1467 49.7926 84.08C49.7459 84.0067 49.7192 83.93 49.7126 83.85C49.7126 83.7633 49.7326 83.68 49.7726 83.6C49.8192 83.52 49.8959 83.46 50.0026 83.42C50.2959 83.28 50.5859 83.18 50.8726 83.12C51.1592 83.06 51.4292 83.03 51.6826 83.03C52.1292 83.03 52.4959 83.1 52.7826 83.24C53.0759 83.38 53.2926 83.5933 53.4326 83.88C53.5726 84.1667 53.6426 84.5367 53.6426 84.99V87.56C53.6426 87.72 53.6026 87.8467 53.5226 87.94C53.4426 88.0267 53.3259 88.07 53.1726 88.07C53.0259 88.07 52.9092 88.0267 52.8226 87.94C52.7359 87.8467 52.6926 87.72 52.6926 87.56V86.91H52.7826C52.7292 87.1567 52.6292 87.37 52.4826 87.55C52.3426 87.7233 52.1659 87.8567 51.9526 87.95C51.7392 88.0433 51.4959 88.09 51.2226 88.09ZM58.2876 88.06C58.1276 88.06 58.0042 88.0133 57.9176 87.92C57.8309 87.82 57.7876 87.6833 57.7876 87.51V83.61C57.7876 83.4367 57.8309 83.3033 57.9176 83.21C58.0042 83.1167 58.1276 83.07 58.2876 83.07C58.4476 83.07 58.5709 83.1167 58.6576 83.21C58.7509 83.3033 58.7976 83.4367 58.7976 83.61V87.51C58.7976 87.6833 58.7542 87.82 58.6676 87.92C58.5809 88.0133 58.4542 88.06 58.2876 88.06ZM58.2876 82.03C58.0876 82.03 57.9309 81.98 57.8176 81.88C57.7109 81.78 57.6576 81.64 57.6576 81.46C57.6576 81.2733 57.7109 81.1333 57.8176 81.04C57.9309 80.94 58.0876 80.89 58.2876 80.89C58.4876 80.89 58.6409 80.94 58.7476 81.04C58.8609 81.1333 58.9176 81.2733 58.9176 81.46C58.9176 81.64 58.8609 81.78 58.7476 81.88C58.6409 81.98 58.4876 82.03 58.2876 82.03ZM60.8266 88.07C60.6666 88.07 60.54 88.0267 60.4466 87.94C60.36 87.8467 60.3166 87.72 60.3166 87.56V83.56C60.3166 83.3867 60.36 83.26 60.4466 83.18C60.54 83.0933 60.6666 83.05 60.8266 83.05C60.9866 83.05 61.11 83.0933 61.1966 83.18C61.2833 83.26 61.3266 83.3867 61.3266 83.56V85.09H63.7566V83.56C63.7566 83.3867 63.7966 83.26 63.8766 83.18C63.9633 83.0933 64.09 83.05 64.2566 83.05C64.4166 83.05 64.54 83.0933 64.6266 83.18C64.72 83.26 64.7666 83.3867 64.7666 83.56V87.56C64.7666 87.72 64.72 87.8467 64.6266 87.94C64.54 88.0267 64.4166 88.07 64.2566 88.07C64.09 88.07 63.9633 88.0267 63.8766 87.94C63.7966 87.8467 63.7566 87.72 63.7566 87.56V85.89H61.3266V87.56C61.3266 87.72 61.2833 87.8467 61.1966 87.94C61.1166 88.0267 60.9933 88.07 60.8266 88.07ZM66.2137 89.37C66.0803 89.37 65.9737 89.33 65.8937 89.25C65.8137 89.17 65.7737 89.0567 65.7737 88.91V87.68C65.7737 87.36 65.937 87.2 66.2637 87.2H66.7737L66.1737 87.41C66.3537 87.17 66.497 86.9167 66.6037 86.65C66.7103 86.3833 66.787 86.08 66.8337 85.74C66.887 85.3933 66.9137 84.9933 66.9137 84.54V83.69C66.9137 83.51 66.9603 83.37 67.0537 83.27C67.1537 83.17 67.297 83.12 67.4837 83.12H69.9537C70.1337 83.12 70.2737 83.17 70.3737 83.27C70.4737 83.37 70.5237 83.51 70.5237 83.69V87.67L70.0537 87.2H70.8237C70.977 87.2 71.0937 87.24 71.1737 87.32C71.2603 87.4 71.3037 87.52 71.3037 87.68V88.91C71.3037 89.2167 71.1603 89.37 70.8737 89.37C70.7337 89.37 70.627 89.33 70.5537 89.25C70.4803 89.17 70.4437 89.0567 70.4437 88.91V88H66.6437V88.91C66.6437 89.2167 66.5003 89.37 66.2137 89.37ZM67.2537 87.2H69.5637V83.91H67.7937V84.75C67.7937 85.21 67.747 85.6567 67.6537 86.09C67.5603 86.5233 67.427 86.8933 67.2537 87.2ZM72.7788 88.07C72.6788 88.07 72.5922 88.05 72.5188 88.01C72.4522 87.9767 72.3988 87.92 72.3588 87.84C72.3255 87.76 72.3088 87.6567 72.3088 87.53V83.54C72.3088 83.38 72.3488 83.26 72.4288 83.18C72.5088 83.0933 72.6222 83.05 72.7688 83.05C72.9155 83.05 73.0288 83.0933 73.1088 83.18C73.1888 83.26 73.2288 83.38 73.2288 83.54V87H72.9688L75.6788 83.38C75.7455 83.2933 75.8222 83.2167 75.9088 83.15C75.9955 83.0833 76.1122 83.05 76.2588 83.05C76.3588 83.05 76.4422 83.07 76.5088 83.11C76.5755 83.1433 76.6255 83.2 76.6588 83.28C76.6988 83.36 76.7188 83.4633 76.7188 83.59V87.58C76.7188 87.7333 76.6788 87.8533 76.5988 87.94C76.5255 88.0267 76.4155 88.07 76.2688 88.07C76.1155 88.07 75.9988 88.0267 75.9188 87.94C75.8388 87.8533 75.7988 87.7333 75.7988 87.58V84.12H76.0688L73.3488 87.75C73.2888 87.83 73.2155 87.9033 73.1288 87.97C73.0488 88.0367 72.9322 88.07 72.7788 88.07ZM78.7466 88C78.5799 88 78.4532 87.9567 78.3666 87.87C78.2799 87.7767 78.2366 87.65 78.2366 87.49V83.64C78.2366 83.4733 78.2799 83.3467 78.3666 83.26C78.4532 83.1667 78.5799 83.12 78.7466 83.12H80.7266C81.1266 83.12 81.4532 83.17 81.7066 83.27C81.9666 83.37 82.1566 83.5167 82.2766 83.71C82.3966 83.8967 82.4566 84.1267 82.4566 84.4C82.4566 84.7133 82.3499 84.9767 82.1366 85.19C81.9232 85.3967 81.6432 85.52 81.2966 85.56V85.43C81.7166 85.45 82.0399 85.57 82.2666 85.79C82.4999 86.01 82.6166 86.2933 82.6166 86.64C82.6166 87.06 82.4599 87.3933 82.1466 87.64C81.8332 87.88 81.3866 88 80.8066 88H78.7466ZM79.1866 87.35H80.7466C81.0466 87.35 81.2766 87.2867 81.4366 87.16C81.6032 87.0267 81.6866 86.8367 81.6866 86.59C81.6866 86.3433 81.6032 86.1567 81.4366 86.03C81.2766 85.9033 81.0466 85.84 80.7466 85.84H79.1866V87.35ZM79.1866 85.19H80.6566C80.9299 85.19 81.1399 85.1267 81.2866 85C81.4399 84.8733 81.5166 84.7 81.5166 84.48C81.5166 84.2533 81.4399 84.08 81.2866 83.96C81.1399 83.84 80.9299 83.78 80.6566 83.78H79.1866V85.19ZM84.3032 88.06C84.1432 88.06 84.0199 88.0133 83.9332 87.92C83.8465 87.82 83.8032 87.6833 83.8032 87.51V83.61C83.8032 83.4367 83.8465 83.3033 83.9332 83.21C84.0199 83.1167 84.1432 83.07 84.3032 83.07C84.4632 83.07 84.5865 83.1167 84.6732 83.21C84.7665 83.3033 84.8132 83.4367 84.8132 83.61V87.51C84.8132 87.6833 84.7699 87.82 84.6832 87.92C84.5965 88.0133 84.4699 88.06 84.3032 88.06ZM84.3032 82.03C84.1032 82.03 83.9465 81.98 83.8332 81.88C83.7265 81.78 83.6732 81.64 83.6732 81.46C83.6732 81.2733 83.7265 81.1333 83.8332 81.04C83.9465 80.94 84.1032 80.89 84.3032 80.89C84.5032 80.89 84.6565 80.94 84.7632 81.04C84.8765 81.1333 84.9332 81.2733 84.9332 81.46C84.9332 81.64 84.8765 81.78 84.7632 81.88C84.6565 81.98 84.5032 82.03 84.3032 82.03ZM86.2723 89.37C86.1389 89.37 86.0323 89.33 85.9523 89.25C85.8723 89.17 85.8323 89.0567 85.8323 88.91V87.68C85.8323 87.36 85.9956 87.2 86.3223 87.2H86.8323L86.2323 87.41C86.4123 87.17 86.5556 86.9167 86.6623 86.65C86.7689 86.3833 86.8456 86.08 86.8923 85.74C86.9456 85.3933 86.9723 84.9933 86.9723 84.54V83.69C86.9723 83.51 87.0189 83.37 87.1123 83.27C87.2123 83.17 87.3556 83.12 87.5423 83.12H90.0123C90.1923 83.12 90.3323 83.17 90.4323 83.27C90.5323 83.37 90.5823 83.51 90.5823 83.69V87.67L90.1123 87.2H90.8823C91.0356 87.2 91.1523 87.24 91.2323 87.32C91.3189 87.4 91.3623 87.52 91.3623 87.68V88.91C91.3623 89.2167 91.2189 89.37 90.9323 89.37C90.7923 89.37 90.6856 89.33 90.6123 89.25C90.5389 89.17 90.5023 89.0567 90.5023 88.91V88H86.7023V88.91C86.7023 89.2167 86.5589 89.37 86.2723 89.37ZM87.3123 87.2H89.6223V83.91H87.8523V84.75C87.8523 85.21 87.8056 85.6567 87.7123 86.09C87.6189 86.5233 87.4856 86.8933 87.3123 87.2ZM93.5274 89.87C93.4074 89.87 93.3074 89.8367 93.2274 89.77C93.1541 89.71 93.1108 89.6267 93.0974 89.52C93.0908 89.42 93.1108 89.31 93.1574 89.19L93.8374 87.66V88.09L91.9674 83.74C91.9208 83.62 91.9041 83.5067 91.9174 83.4C91.9308 83.2933 91.9808 83.21 92.0674 83.15C92.1541 83.0833 92.2708 83.05 92.4174 83.05C92.5441 83.05 92.6441 83.08 92.7174 83.14C92.7908 83.2 92.8574 83.3033 92.9174 83.45L94.4274 87.18H94.1474L95.6774 83.45C95.7374 83.2967 95.8074 83.1933 95.8874 83.14C95.9674 83.08 96.0774 83.05 96.2174 83.05C96.3374 83.05 96.4308 83.0833 96.4974 83.15C96.5708 83.21 96.6141 83.2933 96.6274 83.4C96.6474 83.5 96.6308 83.61 96.5774 83.73L94.0774 89.48C94.0108 89.6333 93.9341 89.7367 93.8474 89.79C93.7674 89.8433 93.6608 89.87 93.5274 89.87ZM99.162 88.09C98.822 88.09 98.5154 88.0233 98.242 87.89C97.9754 87.7567 97.7654 87.5767 97.612 87.35C97.4587 87.1233 97.382 86.8667 97.382 86.58C97.382 86.22 97.472 85.9367 97.652 85.73C97.8387 85.5167 98.142 85.3667 98.562 85.28C98.9887 85.1867 99.562 85.14 100.282 85.14H100.752V85.76H100.292C99.812 85.76 99.432 85.7833 99.152 85.83C98.872 85.8767 98.672 85.9567 98.552 86.07C98.4387 86.1767 98.382 86.3267 98.382 86.52C98.382 86.7733 98.4687 86.98 98.642 87.14C98.8154 87.2933 99.0554 87.37 99.362 87.37C99.6087 87.37 99.8254 87.3133 100.012 87.2C100.199 87.08 100.345 86.92 100.452 86.72C100.565 86.52 100.622 86.29 100.622 86.03V84.88C100.622 84.5 100.542 84.2267 100.382 84.06C100.222 83.8933 99.9587 83.81 99.592 83.81C99.3787 83.81 99.1554 83.8367 98.922 83.89C98.6954 83.9433 98.4587 84.0333 98.212 84.16C98.0987 84.2133 98.002 84.23 97.922 84.21C97.842 84.19 97.7787 84.1467 97.732 84.08C97.6854 84.0067 97.6587 83.93 97.652 83.85C97.652 83.7633 97.672 83.68 97.712 83.6C97.7587 83.52 97.8354 83.46 97.942 83.42C98.2354 83.28 98.5254 83.18 98.812 83.12C99.0987 83.06 99.3687 83.03 99.622 83.03C100.069 83.03 100.435 83.1 100.722 83.24C101.015 83.38 101.232 83.5933 101.372 83.88C101.512 84.1667 101.582 84.5367 101.582 84.99V87.56C101.582 87.72 101.542 87.8467 101.462 87.94C101.382 88.0267 101.265 88.07 101.112 88.07C100.965 88.07 100.849 88.0267 100.762 87.94C100.675 87.8467 100.632 87.72 100.632 87.56V86.91H100.722C100.669 87.1567 100.569 87.37 100.422 87.55C100.282 87.7233 100.105 87.8567 99.892 87.95C99.6787 88.0433 99.4354 88.09 99.162 88.09ZM106.9 88.07C106.74 88.07 106.617 88.0267 106.53 87.94C106.444 87.8467 106.4 87.72 106.4 87.56V83.93H104.63V84.52C104.63 85.0133 104.604 85.4533 104.55 85.84C104.497 86.22 104.414 86.55 104.3 86.83C104.187 87.11 104.04 87.3467 103.86 87.54C103.68 87.7333 103.46 87.89 103.2 88.01C103.087 88.0567 102.984 88.07 102.89 88.05C102.797 88.03 102.717 87.99 102.65 87.93C102.59 87.8633 102.55 87.7867 102.53 87.7C102.51 87.6133 102.52 87.5267 102.56 87.44C102.6 87.3467 102.674 87.27 102.78 87.21C102.96 87.11 103.107 86.9833 103.22 86.83C103.34 86.6767 103.434 86.4933 103.5 86.28C103.567 86.06 103.614 85.8033 103.64 85.51C103.674 85.2167 103.69 84.8767 103.69 84.49V83.69C103.69 83.51 103.737 83.37 103.83 83.27C103.93 83.17 104.074 83.12 104.26 83.12H106.84C107.02 83.12 107.16 83.17 107.26 83.27C107.36 83.37 107.41 83.51 107.41 83.69V87.56C107.41 87.72 107.364 87.8467 107.27 87.94C107.184 88.0267 107.06 88.07 106.9 88.07ZM109.44 88C109.273 88 109.147 87.9567 109.06 87.87C108.973 87.7767 108.93 87.65 108.93 87.49V83.56C108.93 83.3867 108.973 83.26 109.06 83.18C109.153 83.0933 109.28 83.05 109.44 83.05C109.6 83.05 109.723 83.0933 109.81 83.18C109.897 83.26 109.94 83.3867 109.94 83.56V84.81H111.33C111.957 84.81 112.433 84.9467 112.76 85.22C113.087 85.4867 113.25 85.8767 113.25 86.39C113.25 86.7167 113.173 87.0033 113.02 87.25C112.867 87.49 112.647 87.6767 112.36 87.81C112.073 87.9367 111.73 88 111.33 88H109.44ZM109.94 87.31H111.2C111.547 87.31 111.817 87.2367 112.01 87.09C112.203 86.9367 112.3 86.7033 112.3 86.39C112.3 86.0833 112.203 85.86 112.01 85.72C111.817 85.5733 111.547 85.5 111.2 85.5H109.94V87.31ZM114.879 88.07C114.719 88.07 114.593 88.0267 114.499 87.94C114.413 87.8467 114.369 87.72 114.369 87.56V83.56C114.369 83.3867 114.413 83.26 114.499 83.18C114.593 83.0933 114.719 83.05 114.879 83.05C115.039 83.05 115.163 83.0933 115.249 83.18C115.336 83.26 115.379 83.3867 115.379 83.56V85.09H117.809V83.56C117.809 83.3867 117.849 83.26 117.929 83.18C118.016 83.0933 118.143 83.05 118.309 83.05C118.469 83.05 118.593 83.0933 118.679 83.18C118.773 83.26 118.819 83.3867 118.819 83.56V87.56C118.819 87.72 118.773 87.8467 118.679 87.94C118.593 88.0267 118.469 88.07 118.309 88.07C118.143 88.07 118.016 88.0267 117.929 87.94C117.849 87.8467 117.809 87.72 117.809 87.56V85.89H115.379V87.56C115.379 87.72 115.336 87.8467 115.249 87.94C115.169 88.0267 115.046 88.07 114.879 88.07ZM120.836 88.06C120.676 88.06 120.553 88.0133 120.466 87.92C120.38 87.82 120.336 87.6833 120.336 87.51V83.61C120.336 83.4367 120.38 83.3033 120.466 83.21C120.553 83.1167 120.676 83.07 120.836 83.07C120.996 83.07 121.12 83.1167 121.206 83.21C121.3 83.3033 121.346 83.4367 121.346 83.61V87.51C121.346 87.6833 121.303 87.82 121.216 87.92C121.13 88.0133 121.003 88.06 120.836 88.06ZM120.836 82.03C120.636 82.03 120.48 81.98 120.366 81.88C120.26 81.78 120.206 81.64 120.206 81.46C120.206 81.2733 120.26 81.1333 120.366 81.04C120.48 80.94 120.636 80.89 120.836 80.89C121.036 80.89 121.19 80.94 121.296 81.04C121.41 81.1333 121.466 81.2733 121.466 81.46C121.466 81.64 121.41 81.78 121.296 81.88C121.19 81.98 121.036 82.03 120.836 82.03ZM127.202 88.09C126.862 88.09 126.529 88.0567 126.202 87.99C125.876 87.9167 125.592 87.81 125.352 87.67C125.252 87.6167 125.182 87.5533 125.142 87.48C125.102 87.4 125.086 87.32 125.092 87.24C125.099 87.1533 125.126 87.0833 125.172 87.03C125.226 86.97 125.292 86.9333 125.372 86.92C125.459 86.9067 125.559 86.93 125.672 86.99C125.886 87.11 126.126 87.2 126.392 87.26C126.659 87.3133 126.922 87.34 127.182 87.34C127.636 87.34 127.959 87.28 128.152 87.16C128.352 87.0333 128.452 86.8467 128.452 86.6C128.452 86.3733 128.372 86.2 128.212 86.08C128.052 85.96 127.826 85.9 127.532 85.9H126.652C126.526 85.9 126.426 85.8667 126.352 85.8C126.279 85.7333 126.242 85.6433 126.242 85.53C126.242 85.41 126.279 85.32 126.352 85.26C126.426 85.1933 126.526 85.16 126.652 85.16H127.422C127.682 85.16 127.889 85.1033 128.042 84.99C128.202 84.87 128.282 84.7067 128.282 84.5C128.282 84.2733 128.196 84.0967 128.022 83.97C127.849 83.8433 127.556 83.78 127.142 83.78C126.896 83.78 126.656 83.8067 126.422 83.86C126.189 83.9133 125.966 83.9933 125.752 84.1C125.612 84.1667 125.496 84.1833 125.402 84.15C125.309 84.1167 125.239 84.0567 125.192 83.97C125.152 83.8767 125.149 83.7833 125.182 83.69C125.216 83.59 125.292 83.51 125.412 83.45C125.686 83.3033 125.979 83.1967 126.292 83.13C126.606 83.0633 126.939 83.03 127.292 83.03C127.926 83.03 128.402 83.1533 128.722 83.4C129.049 83.64 129.212 83.9733 129.212 84.4C129.212 84.7133 129.106 84.9767 128.892 85.19C128.686 85.3967 128.409 85.52 128.062 85.56V85.43C128.469 85.45 128.792 85.57 129.032 85.79C129.272 86.0033 129.392 86.2867 129.392 86.64C129.392 87.08 129.206 87.4333 128.832 87.7C128.459 87.96 127.916 88.09 127.202 88.09ZM132.15 88.09C131.81 88.09 131.504 88.0233 131.23 87.89C130.964 87.7567 130.754 87.5767 130.6 87.35C130.447 87.1233 130.37 86.8667 130.37 86.58C130.37 86.22 130.46 85.9367 130.64 85.73C130.827 85.5167 131.13 85.3667 131.55 85.28C131.977 85.1867 132.55 85.14 133.27 85.14H133.74V85.76H133.28C132.8 85.76 132.42 85.7833 132.14 85.83C131.86 85.8767 131.66 85.9567 131.54 86.07C131.427 86.1767 131.37 86.3267 131.37 86.52C131.37 86.7733 131.457 86.98 131.63 87.14C131.804 87.2933 132.044 87.37 132.35 87.37C132.597 87.37 132.814 87.3133 133 87.2C133.187 87.08 133.334 86.92 133.44 86.72C133.554 86.52 133.61 86.29 133.61 86.03V84.88C133.61 84.5 133.53 84.2267 133.37 84.06C133.21 83.8933 132.947 83.81 132.58 83.81C132.367 83.81 132.144 83.8367 131.91 83.89C131.684 83.9433 131.447 84.0333 131.2 84.16C131.087 84.2133 130.99 84.23 130.91 84.21C130.83 84.19 130.767 84.1467 130.72 84.08C130.674 84.0067 130.647 83.93 130.64 83.85C130.64 83.7633 130.66 83.68 130.7 83.6C130.747 83.52 130.824 83.46 130.93 83.42C131.224 83.28 131.514 83.18 131.8 83.12C132.087 83.06 132.357 83.03 132.61 83.03C133.057 83.03 133.424 83.1 133.71 83.24C134.004 83.38 134.22 83.5933 134.36 83.88C134.5 84.1667 134.57 84.5367 134.57 84.99V87.56C134.57 87.72 134.53 87.8467 134.45 87.94C134.37 88.0267 134.254 88.07 134.1 88.07C133.954 88.07 133.837 88.0267 133.75 87.94C133.664 87.8467 133.62 87.72 133.62 87.56V86.91H133.71C133.657 87.1567 133.557 87.37 133.41 87.55C133.27 87.7233 133.094 87.8567 132.88 87.95C132.667 88.0433 132.424 88.09 132.15 88.09ZM136.249 88.06C136.129 88.06 136.029 88.0267 135.949 87.96C135.875 87.8867 135.835 87.7967 135.829 87.69C135.829 87.5833 135.875 87.4667 135.969 87.34L137.659 85.23V85.73L136.079 83.76C135.972 83.64 135.922 83.5267 135.929 83.42C135.935 83.3067 135.979 83.2167 136.059 83.15C136.139 83.0833 136.235 83.05 136.349 83.05C136.475 83.05 136.579 83.0733 136.659 83.12C136.745 83.16 136.825 83.23 136.899 83.33L138.229 85.02H137.869L139.209 83.33C139.282 83.23 139.359 83.16 139.439 83.12C139.525 83.0733 139.629 83.05 139.749 83.05C139.869 83.05 139.965 83.0867 140.039 83.16C140.119 83.2267 140.159 83.3167 140.159 83.43C140.165 83.5367 140.119 83.65 140.019 83.77L138.439 85.71V85.26L140.129 87.34C140.229 87.46 140.275 87.5767 140.269 87.69C140.269 87.7967 140.229 87.8867 140.149 87.96C140.069 88.0267 139.969 88.06 139.849 88.06C139.729 88.06 139.625 88.0367 139.539 87.99C139.459 87.9433 139.379 87.8733 139.299 87.78L137.869 85.98H138.209L136.789 87.78C136.715 87.8667 136.635 87.9367 136.549 87.99C136.469 88.0367 136.369 88.06 136.249 88.06ZM143.56 88.09C143.067 88.09 142.64 87.9867 142.28 87.78C141.927 87.5733 141.65 87.28 141.45 86.9C141.25 86.52 141.15 86.0733 141.15 85.56C141.15 85.1667 141.207 84.8167 141.32 84.51C141.433 84.2033 141.593 83.94 141.8 83.72C142.013 83.4933 142.267 83.3233 142.56 83.21C142.86 83.09 143.193 83.03 143.56 83.03C144.047 83.03 144.467 83.1333 144.82 83.34C145.18 83.5467 145.46 83.84 145.66 84.22C145.86 84.5933 145.96 85.04 145.96 85.56C145.96 85.9467 145.903 86.2967 145.79 86.61C145.677 86.9233 145.513 87.19 145.3 87.41C145.093 87.63 144.84 87.8 144.54 87.92C144.247 88.0333 143.92 88.09 143.56 88.09ZM143.56 87.31C143.833 87.31 144.073 87.2433 144.28 87.11C144.487 86.9767 144.647 86.78 144.76 86.52C144.88 86.26 144.94 85.94 144.94 85.56C144.94 84.9867 144.813 84.5533 144.56 84.26C144.307 83.9667 143.973 83.82 143.56 83.82C143.28 83.82 143.037 83.8867 142.83 84.02C142.623 84.1467 142.46 84.34 142.34 84.6C142.227 84.86 142.17 85.18 142.17 85.56C142.17 86.1267 142.297 86.56 142.55 86.86C142.803 87.16 143.14 87.31 143.56 87.31ZM147.141 89.37C147.008 89.37 146.901 89.33 146.821 89.25C146.741 89.17 146.701 89.0567 146.701 88.91V87.68C146.701 87.36 146.865 87.2 147.191 87.2H147.701L147.101 87.41C147.281 87.17 147.425 86.9167 147.531 86.65C147.638 86.3833 147.715 86.08 147.761 85.74C147.815 85.3933 147.841 84.9933 147.841 84.54V83.69C147.841 83.51 147.888 83.37 147.981 83.27C148.081 83.17 148.225 83.12 148.411 83.12H150.881C151.061 83.12 151.201 83.17 151.301 83.27C151.401 83.37 151.451 83.51 151.451 83.69V87.67L150.981 87.2H151.751C151.905 87.2 152.021 87.24 152.101 87.32C152.188 87.4 152.231 87.52 152.231 87.68V88.91C152.231 89.2167 152.088 89.37 151.801 89.37C151.661 89.37 151.555 89.33 151.481 89.25C151.408 89.17 151.371 89.0567 151.371 88.91V88H147.571V88.91C147.571 89.2167 147.428 89.37 147.141 89.37ZM148.181 87.2H150.491V83.91H148.721V84.75C148.721 85.21 148.675 85.6567 148.581 86.09C148.488 86.5233 148.355 86.8933 148.181 87.2ZM153.707 88.07C153.607 88.07 153.52 88.05 153.447 88.01C153.38 87.9767 153.327 87.92 153.287 87.84C153.253 87.76 153.237 87.6567 153.237 87.53V83.54C153.237 83.38 153.277 83.26 153.357 83.18C153.437 83.0933 153.55 83.05 153.697 83.05C153.843 83.05 153.957 83.0933 154.037 83.18C154.117 83.26 154.157 83.38 154.157 83.54V87H153.897L156.607 83.38C156.673 83.2933 156.75 83.2167 156.837 83.15C156.923 83.0833 157.04 83.05 157.187 83.05C157.287 83.05 157.37 83.07 157.437 83.11C157.503 83.1433 157.553 83.2 157.587 83.28C157.627 83.36 157.647 83.4633 157.647 83.59V87.58C157.647 87.7333 157.607 87.8533 157.527 87.94C157.453 88.0267 157.343 88.07 157.197 88.07C157.043 88.07 156.927 88.0267 156.847 87.94C156.767 87.8533 156.727 87.7333 156.727 87.58V84.12H156.997L154.277 87.75C154.217 87.83 154.143 87.9033 154.057 87.97C153.977 88.0367 153.86 88.07 153.707 88.07Z" fill="#DA9D27"/>
</g>
<defs>
<clipPath id="clip0_2528_853">
<rect width="163" height="96" fill="white"/>
</clipPath>
</defs>
</svg>
