<svg width="24" height="24" viewBox="0 0 24 24" fill="none" xmlns="http://www.w3.org/2000/svg">
<g clip-path="url(#clip0_2528_850)">
<path d="M0 0V24H23.9976V0H0ZM13.9486 4.65H14.8485V8.7C14.8485 8.85 14.8485 9 14.9985 9C15.1485 9 15.2985 8.85 15.5984 8.55V4.65H16.4984V9.6H15.5984V9.15C15.2985 9.6 14.8485 9.75 14.5485 9.75C14.2486 9.75 14.0986 9.6 13.9486 9.45C13.9486 9.3 13.7986 9 13.7986 8.7V4.65H13.9486ZM10.499 6.3C10.499 5.85 10.499 5.4 10.7989 5.1C11.0989 4.8 11.3989 4.65 11.8488 4.65C12.2988 4.65 12.5987 4.8 12.8987 5.1C13.0487 5.4 13.1987 5.7 13.1987 6.3V8.1C13.1987 8.7 13.0487 9 12.8987 9.3C12.5987 9.6 12.2988 9.75 11.8488 9.75C11.3989 9.75 11.0989 9.6 10.7989 9.3C10.499 9 10.499 8.7 10.499 8.1V6.3ZM7.94921 3L8.69913 5.7L9.44906 3H10.499L9.29907 7.05V9.75H8.24918V7.05C8.09919 6.45 7.9492 5.85 7.64924 4.8C7.34927 4.2 7.19928 3.6 6.89931 3H7.94921ZM19.1981 19.35C19.0481 20.1 18.2982 20.7 17.5482 20.85C15.7484 21 13.7986 21 11.9988 21C10.199 21 8.24918 21 6.44936 20.85C5.69943 20.7 4.94951 20.25 4.79952 19.35C4.49955 18.15 4.49955 16.95 4.49955 15.75C4.49955 14.7 4.49955 13.5 4.79952 12.3C4.94951 11.55 5.69943 10.95 6.44936 10.8C8.24918 10.65 10.199 10.65 11.9988 10.65C13.7986 10.65 15.7484 10.65 17.5482 10.8C18.2982 10.95 19.0481 11.4 19.1981 12.3C19.4981 13.5 19.4981 14.7 19.4981 15.75C19.4981 16.95 19.4981 18.15 19.1981 19.35Z" fill="#979797"/>
<path d="M11.8486 9.00039C12.1486 9.00039 12.2986 8.70039 12.2986 8.25039V6.15039C12.2986 5.70039 12.1486 5.40039 11.8486 5.40039C11.5486 5.40039 11.3986 5.70039 11.3986 6.15039V8.25039C11.3986 8.70039 11.5486 9.00039 11.8486 9.00039ZM10.6487 17.8504C10.4987 18.1504 10.1988 18.3004 10.0488 18.3004C9.8988 18.3004 9.8988 18.3004 9.8988 18.1504V14.1004H8.99889V18.0004C8.99889 18.3004 8.99889 18.6004 9.14887 18.7504C9.29886 19.0504 9.44884 19.0504 9.74881 19.0504C10.0488 19.0504 10.3488 18.9004 10.7987 18.4504V19.0504H11.6986V14.1004H10.6487V17.8504ZM5.69922 13.3504H6.74911V19.0504H7.79901V13.3504H8.8489V12.3004H5.69922V13.3504ZM14.0984 13.9504C13.7984 13.9504 13.4984 14.2504 13.1985 14.5504V12.3004H12.2986V18.9004H13.1985V18.4504C13.4984 18.7504 13.7984 19.0504 14.0984 19.0504C14.3983 19.0504 14.6983 18.9004 14.8483 18.4504C14.8483 18.3004 14.9983 17.8504 14.9983 17.4004V15.4504C14.9983 15.0004 14.9983 14.7004 14.8483 14.4004C14.6983 14.2504 14.5483 13.9504 14.0984 13.9504ZM14.0984 17.5504C14.0984 18.0004 13.9484 18.1504 13.6484 18.1504C13.4984 18.1504 13.3485 18.1504 13.1985 18.0004V15.0004C13.3485 14.8504 13.4984 14.8504 13.6484 14.8504C13.9484 14.8504 14.0984 15.1504 14.0984 15.6004V17.5504ZM16.9481 13.9504C16.4981 13.9504 16.1982 14.1004 15.8982 14.4004C15.7482 14.7004 15.5982 15.0004 15.5982 15.6004V17.4004C15.5982 18.0004 15.7482 18.3004 15.8982 18.6004C16.1982 18.9004 16.4981 19.0504 16.9481 19.0504C17.3981 19.0504 17.848 18.9004 17.998 18.4504C18.148 18.3004 18.148 18.1504 18.148 17.8504V17.1004H17.2481V17.7004C17.2481 18.0004 17.0981 18.0004 16.7981 18.0004C16.4981 18.0004 16.3482 17.7004 16.3482 17.2504V16.3504H18.148V15.3004C18.148 14.7004 17.998 14.4004 17.848 14.1004C17.848 14.2504 17.3981 13.9504 16.9481 13.9504ZM17.3981 15.9004H16.4981V15.4504C16.4981 15.0004 16.6481 14.7004 16.9481 14.7004C17.2481 14.7004 17.3981 15.0004 17.3981 15.4504V15.9004Z" fill="#979797"/>
</g>
<defs>
<clipPath id="clip0_2528_850">
<rect width="23.9976" height="24" fill="white"/>
</clipPath>
</defs>
</svg>
