<svg width="24" height="24" viewBox="0 0 24 24" fill="none" xmlns="http://www.w3.org/2000/svg">
<path d="M23.04 0H0.96C0.429 0 0 0.429 0 0.96V23.04C0 23.571 0.429 24 0.96 24H23.04C23.571 24 24 23.571 24 23.04V0.96C24 0.429 23.571 0 23.04 0ZM13.095 15.324C11.778 17.178 9.132 17.718 7.068 16.923C4.998 16.134 3.528 13.947 3.705 11.718C3.75 8.991 6.261 6.6 8.988 6.693C10.296 6.633 11.526 7.2 12.528 8.001C12.099 8.487 11.658 8.955 11.184 9.39C9.981 8.559 8.268 8.322 7.065 9.282C5.343 10.473 5.265 13.284 6.921 14.565C8.532 16.026 11.577 15.3 12.024 13.062C11.016 13.047 10.002 13.062 8.994 13.029C8.991 12.426 8.988 11.826 8.991 11.223C10.677 11.217 12.366 11.214 14.055 11.229C14.154 12.648 13.965 14.154 13.095 15.324ZM20.37 12.735C19.866 12.741 19.362 12.744 18.858 12.747C18.852 13.251 18.849 13.755 18.849 14.259H17.34C17.334 13.755 17.334 13.254 17.331 12.75C16.827 12.744 16.323 12.741 15.819 12.735V11.232C16.323 11.226 16.827 11.223 17.331 11.223C17.334 10.719 17.34 10.215 17.343 9.711H18.849L18.858 11.223C19.362 11.229 19.866 11.229 20.37 11.232V12.735Z" fill="#979797"/>
</svg>
