<svg width="154" height="96" viewBox="0 0 154 96" fill="none" xmlns="http://www.w3.org/2000/svg">
<path d="M34.432 69.704C29.568 69.704 25.408 68.744 21.952 66.824C18.496 64.904 15.8293 62.216 13.952 58.76C12.1173 55.2613 11.2 51.144 11.2 46.408C11.2 42.8667 11.712 39.688 12.736 36.872C13.8027 34.0133 15.3387 31.5813 17.344 29.576C19.3493 27.528 21.7813 25.9493 24.64 24.84C27.5413 23.7307 30.8053 23.176 34.432 23.176C36.5653 23.176 38.72 23.4533 40.896 24.008C43.1147 24.52 45.0347 25.2667 46.656 26.248C47.7227 26.8453 48.448 27.592 48.832 28.488C49.216 29.384 49.3227 30.28 49.152 31.176C49.024 32.072 48.6613 32.84 48.064 33.48C47.5093 34.12 46.8053 34.5253 45.952 34.696C45.0987 34.8667 44.1387 34.6747 43.072 34.12C41.792 33.352 40.448 32.7973 39.04 32.456C37.632 32.1147 36.2027 31.944 34.752 31.944C31.8933 31.944 29.4827 32.52 27.52 33.672C25.6 34.7813 24.1493 36.4027 23.168 38.536C22.1867 40.6693 21.696 43.2933 21.696 46.408C21.696 49.48 22.1867 52.104 23.168 54.28C24.1493 56.456 25.6 58.12 27.52 59.272C29.4827 60.3813 31.8933 60.936 34.752 60.936C36.1173 60.936 37.504 60.7653 38.912 60.424C40.3627 60.0827 41.7493 59.5493 43.072 58.824C44.1813 58.2693 45.1627 58.0773 46.016 58.248C46.912 58.376 47.6373 58.76 48.192 59.4C48.7893 59.9973 49.152 60.7227 49.28 61.576C49.4507 62.4293 49.3653 63.2827 49.024 64.136C48.6827 64.9893 48.0427 65.7147 47.104 66.312C45.5253 67.3787 43.584 68.2107 41.28 68.808C38.976 69.4053 36.6933 69.704 34.432 69.704ZM61.478 69C59.814 69 58.534 68.552 57.638 67.656C56.742 66.76 56.294 65.48 56.294 63.816V29.064C56.294 27.4 56.742 26.12 57.638 25.224C58.534 24.328 59.814 23.88 61.478 23.88H76.966C80.166 23.88 82.8967 24.3493 85.158 25.288C87.4193 26.2267 89.126 27.5707 90.278 29.32C91.4727 31.0693 92.07 33.16 92.07 35.592C92.07 38.28 91.302 40.5627 89.766 42.44C88.23 44.3173 86.118 45.576 83.43 46.216V45.192C86.5447 45.7467 88.9553 46.984 90.662 48.904C92.4113 50.7813 93.286 53.2347 93.286 56.264C93.286 60.2747 91.8993 63.4107 89.126 65.672C86.3527 67.8907 82.534 69 77.67 69H61.478ZM65.766 61.64H76.326C78.886 61.64 80.7633 61.1493 81.958 60.168C83.1527 59.144 83.75 57.6507 83.75 55.688C83.75 53.7253 83.1527 52.2533 81.958 51.272C80.7633 50.2907 78.886 49.8 76.326 49.8H65.766V61.64ZM65.766 42.44H75.238C77.7127 42.44 79.5473 41.9707 80.742 41.032C81.9367 40.0933 82.534 38.6853 82.534 36.808C82.534 34.9733 81.9367 33.5867 80.742 32.648C79.5473 31.7093 77.7127 31.24 75.238 31.24H65.766V42.44ZM105.978 69C104.314 69 103.034 68.552 102.138 67.656C101.242 66.76 100.794 65.48 100.794 63.816V29.064C100.794 27.4 101.242 26.12 102.138 25.224C103.034 24.328 104.314 23.88 105.978 23.88H118.458C126.181 23.88 132.133 25.8427 136.314 29.768C140.538 33.6507 142.65 39.1973 142.65 46.408C142.65 50.0347 142.095 53.256 140.986 56.072C139.919 58.8453 138.362 61.192 136.314 63.112C134.266 65.032 131.749 66.504 128.762 67.528C125.775 68.5093 122.341 69 118.458 69H105.978ZM110.714 60.872H117.882C120.314 60.872 122.426 60.5733 124.218 59.976C126.01 59.3787 127.503 58.4827 128.698 57.288C129.893 56.0933 130.789 54.6 131.386 52.808C131.983 50.9733 132.282 48.84 132.282 46.408C132.282 41.544 131.066 37.9387 128.634 35.592C126.245 33.2027 122.661 32.008 117.882 32.008H110.714V60.872Z" fill="#DA9D27"/>
</svg>
